<?xml version="1.0" encoding="UTF-8" standalone="no"?>
<!-- Created with Inkscape (http://www.inkscape.org/) -->

<svg
   width="150"
   height="205"
   viewBox="0 0 39.6875 54.239582"
   version="1.1"
   id="svg1"
   xml:space="preserve"
   xmlns="http://www.w3.org/2000/svg"
   xmlns:svg="http://www.w3.org/2000/svg"><defs
     id="defs1" /><g
     id="layer1"><path
       style="fill:#e5b80b;fill-opacity:1;stroke-width:0.404889"
       d="m 6.9442363,54.173384 c -0.05277,-0.05277 -0.09594,-2.941455 -0.09594,-6.419304 v -6.323366 l 0.66559,-0.973172 c 1.3353896,-1.952497 1.3232546,-1.942136 1.7851016,-1.524169 0.248079,0.224507 0.231668,0.273223 -0.381552,1.132572 -0.352429,0.493888 -0.640781,0.934667 -0.640781,0.979508 0,0.04484 1.414076,0.08153 3.1423901,0.08153 2.417522,0 3.142895,-0.04118 3.144578,-0.178548 0.0015,-0.125637 0.03328,-0.131289 0.107127,-0.01907 0.06873,0.104441 0.794995,0.16102 2.104643,0.16396 1.439952,0.0032 1.814652,-0.02741 1.338612,-0.109438 -1.158506,-0.199643 -1.326864,-0.368919 -1.450493,-1.458407 -0.06964,-0.613723 -0.167704,-0.589154 -0.686483,0.172005 -0.480554,0.705074 -0.497327,0.714767 -1.237048,0.715043 -0.412439,1.49e-4 -0.749889,-0.04897 -0.749889,-0.109146 0,-0.06018 0.252021,-0.879432 0.560047,-1.820553 0.308026,-0.941124 0.545947,-1.725233 0.528713,-1.742465 -0.01723,-0.01725 -0.446014,0.02709 -0.952845,0.09853 -0.506832,0.07142 -1.22244,0.168875 -1.590239,0.216563 l -0.668728,0.0867 0.576908,0.920111 c 0.322168,0.513829 0.642965,0.87929 0.726506,0.827658 0.08625,-0.05331 0.107213,-0.02389 0.0495,0.0695 -0.105828,0.171235 0.114572,0.675387 0.435603,0.99642 0.416345,0.416343 0.220393,0.530449 -0.784745,0.456962 -0.881285,-0.06443 -1.043918,-0.127309 -1.662534,-0.642762 -0.377131,-0.314238 -0.757163,-0.54992 -0.844517,-0.523732 -0.08735,0.0262 -0.111992,8.1e-4 -0.05475,-0.05646 0.05724,-0.05724 -0.3766241,-0.492928 -0.9641421,-0.968195 -0.627825,-0.507873 -1.068215,-0.972301 -1.068215,-1.126524 0,-0.144319 0.365323,-0.790615 0.811828,-1.436207 0.446506,-0.645596 0.8231,-1.191528 0.836876,-1.213186 0.04383,-0.06891 4.2360981,-0.614686 5.3502571,-0.696535 l 1.071269,-0.07869 1.106981,0.961895 c 0.70011,0.608351 1.10698,1.068285 1.10698,1.251339 0,0.159194 -0.25711,0.629975 -0.57134,1.046181 -0.31424,0.416206 -0.571353,0.790044 -0.571353,0.830752 0,0.04071 0.164873,0.01134 0.366393,-0.06529 0.59594,-0.226576 1.05053,-0.161474 1.44837,0.207424 l 0.37392,0.346723 -0.90857,0.187662 -0.90857,0.187662 0.56412,0.09338 c 0.31027,0.05136 0.91764,0.0364 1.34972,-0.03324 0.51901,-0.08366 0.94632,-0.07376 1.25925,0.02919 0.26051,0.0857 0.59805,0.123289 0.75008,0.08353 0.15204,-0.03976 0.24326,-0.01859 0.2027,0.04702 -0.0405,0.06562 0.0718,0.139966 0.24977,0.165223 0.20598,0.02923 0.33973,0.159992 0.36817,0.359934 0.1161,0.815941 -0.64773,1.279948 -2.5443,1.545608 -1.04238,0.146011 -0.17386,0.172147 6.14045,0.184788 6.517,0.01304 7.3954,-0.01134 7.71314,-0.214061 0.19723,-0.125836 0.31265,-0.178969 0.2565,-0.118078 -0.0562,0.06089 -0.024,0.222094 0.0714,0.358238 0.13249,0.189022 0.15662,1.763005 0.10209,6.658817 l -0.0714,6.411283 -13.5806,0.03644 c -7.469334,0.02004 -13.6237767,-0.0068 -13.6765437,-0.05951 z m 3.7606287,-6.475948 v -5.85627 H 9.2050879 7.7053103 v 5.85627 5.856273 h 1.4997776 1.4997771 z m 18.99718,0 v -5.85627 h -9.07008 -9.070085 v 5.85627 5.856273 h 9.070085 9.07008 z m -12.21995,4.817024 c -0.0385,-0.10023 -0.05251,-1.530376 -0.0312,-3.178101 l 0.0387,-2.995861 0.37416,-0.0434 c 0.35557,-0.04124 0.37768,-0.09268 0.44513,-1.035407 0.0923,-1.290083 0.53187,-2.000068 1.45702,-2.353387 1.10545,-0.422174 2.05597,-0.101347 2.75866,0.931112 0.25607,0.376247 0.32138,0.671092 0.32138,1.450933 0,0.926058 0.0177,0.978731 0.32852,0.978731 0.18069,0 0.40566,0.07713 0.49993,0.171401 0.24226,0.242266 0.24226,5.842544 0,6.08481 -0.25313,0.253124 -6.09491,0.242905 -6.19228,-0.01085 z m 5.50666,-3.031572 V 46.98326 h -2.42821 -2.42821 v 2.499628 2.499628 h 2.42821 2.42821 z m -3.43905,1.082257 c -0.54424,-0.54424 -0.58898,-1.511755 -0.0961,-2.078969 0.62985,-0.724889 1.9536,-0.614338 2.43671,0.203498 0.39156,0.662872 0.3121,1.251075 -0.24417,1.807348 -0.65879,0.658783 -1.47908,0.685437 -2.0964,0.06812 z m 1.60665,-0.533053 c 0.32484,-0.293978 0.33494,-0.73091 0.0248,-1.073592 -0.47261,-0.52223 -1.33481,-0.183512 -1.33481,0.524388 0,0.69526 0.78496,1.02435 1.30999,0.549204 z m 0.97539,-4.555705 c 0,-0.955563 -0.28115,-1.551981 -0.87679,-1.859996 -1.15218,-0.595819 -2.26561,0.396524 -2.26561,2.019223 v 0.633466 h 1.5712 1.5712 z m 11.35546,2.221049 V 41.91258 h -1.49978 -1.49978 l -0.0374,5.641731 c -0.0206,3.102954 -0.006,5.72447 0.0332,5.825592 0.0526,0.137196 0.44276,0.173519 1.53717,0.143124 l 1.46663,-0.04073 z m -12.31595,-7.842474 c 0.37316,-0.143113 0.65066,-0.513776 0.49854,-0.665901 -0.0378,-0.03782 -0.44491,0.02923 -0.90468,0.148995 -0.45976,0.119754 -1.37349,0.217733 -2.0305,0.217733 -1.06054,0 -1.18925,0.02806 -1.14711,0.249962 0.0342,0.180071 0.22683,0.269932 0.68894,0.321381 0.77256,0.08601 2.3468,-0.062 2.89481,-0.27217 z m -9.560453,-1.546074 c -0.705263,-1.107093 -0.708468,-1.109765 -1.270709,-1.060061 -0.310014,0.02741 -0.5878021,0.07297 -0.6173061,0.101255 -0.02951,0.0283 0.131186,0.205433 0.3570891,0.393657 0.225904,0.188229 0.796392,0.664752 1.26775,1.05894 0.471359,0.394184 0.882487,0.694065 0.913619,0.666399 0.03113,-0.02765 -0.261568,-0.549751 -0.650443,-1.16019 z m 4.749205,-0.560241 0.921977,-1.26383 -0.522081,-0.04545 c -0.287146,-0.02498 -0.569907,0.0071 -0.628359,0.07142 -0.115072,0.126544 -0.855929,2.319578 -0.855929,2.533663 0,0.182208 0.04811,0.124718 1.084392,-1.295799 z m -5.842196,-1.280216 c 0.210476,-0.05644 0.38294,-0.28954 0.526965,-0.712228 l 0.214093,-0.628327 h -0.392342 c -0.303029,0 -0.496147,0.14727 -0.848346,0.646936 -0.2508021,0.355816 -0.4560041,0.677197 -0.4560041,0.71418 0,0.09319 0.5778021,0.08076 0.9556341,-0.02057 z m 3.144875,-0.384333 c 0.723364,-0.09385 1.314786,-0.2349 1.314272,-0.313461 -5.27e-4,-0.07856 -0.128916,-0.359748 -0.285336,-0.624857 l -0.2844,-0.482025 -0.887036,0.09797 c -1.398971,0.15451 -1.474764,0.190553 -1.653203,0.786129 -0.08925,0.297877 -0.162267,0.582348 -0.162267,0.632154 0,0.124175 0.42014,0.103595 1.95797,-0.09591 z m 3.469796,-0.518153 c 0,-0.0733 -0.276513,-0.359853 -0.614473,-0.636785 -0.440543,-0.360995 -0.703341,-0.480276 -0.928434,-0.421413 -0.385273,0.100753 -0.385439,0.08528 0.0074,0.691782 0.283306,0.437373 0.393299,0.496362 0.928433,0.49792 0.333879,8.1e-4 0.607053,-0.0582 0.607053,-0.131504 z m 19.773133,11.515091 c -0.0439,-0.114365 -0.0597,-0.488458 -0.0351,-0.831326 0.04,-0.557804 0.0823,-0.623392 0.40181,-0.623392 0.33761,0 0.35709,0.04285 0.35709,0.785594 0,0.706411 -0.0325,0.790211 -0.32202,0.831327 -0.18441,0.0262 -0.35612,-0.04313 -0.40181,-0.162203 z M 2.0497973,46.356835 c -0.04177,-0.10885 -0.05582,-0.478437 -0.03122,-0.821305 0.04002,-0.557804 0.08229,-0.623392 0.40181,-0.623392 0.334527,0 0.359796,0.05189 0.399926,0.821305 0.04166,0.798798 0.03273,0.821306 -0.325863,0.821306 -0.202785,0 -0.402876,-0.08906 -0.444647,-0.197914 z M 34.962975,45.168963 c -0.0783,-0.09443 -0.12017,-0.287257 -0.093,-0.42851 0.0404,-0.209992 0.19236,-0.256826 0.8331,-0.256826 0.74144,0 0.78601,0.02037 0.82746,0.37847 0.0417,0.36066 0.009,0.380819 -0.69068,0.428507 -0.45509,0.03101 -0.78866,-0.01526 -0.87691,-0.121641 z m 2.96748,-0.125499 c -0.14578,-0.379924 0.18345,-0.631441 0.82345,-0.629065 0.71423,0.0028 0.99171,0.157328 0.92362,0.514853 -0.0723,0.379592 -1.60673,0.479903 -1.74707,0.114212 z M 0.12507035,44.471655 c -0.330433,-0.398144 0.01404,-0.702204 0.795534,-0.702204 0.48213895,0 0.72719995,0.07 0.83316495,0.23799 0.242572,0.384556 -0.126544,0.690441 -0.83316495,0.690441 -0.380295,0 -0.678057,-0.08467 -0.795534,-0.226227 z m 3.17553795,0.10076 c -0.105072,-0.0666 -0.169349,-0.274515 -0.142835,-0.462031 0.03835,-0.271219 0.147172,-0.350387 0.532187,-0.387167 0.98854,-0.09443 1.482782,0.307712 0.987228,0.803264 -0.19637,0.196371 -1.09209,0.22626 -1.37658,0.04593 z M 36.939065,44.17415 c -0.0524,-0.05237 -0.0952,-0.440046 -0.0952,-0.861499 0,-0.819305 0.23544,-1.095359 0.64459,-0.755799 0.301,0.249813 0.29054,1.509148 -0.0135,1.625825 -0.29044,0.11145 -0.41791,0.109421 -0.53586,-0.0085 z M 2.0931223,43.465995 c -0.05569,-0.05569 -0.101249,-0.409655 -0.101249,-0.786595 0,-0.514327 0.0643,-0.719759 0.257659,-0.823245 0.446355,-0.23888 0.619434,0.02004 0.571882,0.855543 -0.03705,0.650977 -0.08967,0.778627 -0.335493,0.813816 -0.160352,0.02296 -0.337112,-0.0036 -0.392799,-0.05952 z M 26.609925,40.440488 c -0.16875,-0.02405 -0.33945,-0.152607 -0.37932,-0.285673 -0.0399,-0.133063 -0.39487,-1.173463 -0.78889,-2.311999 -0.50583,-1.461638 -0.67355,-2.121681 -0.57063,-2.24569 0.15447,-0.186128 1.18147,-0.682024 2.27672,-1.099331 0.75524,-0.287759 0.26836,-0.449577 4.48253,1.48977 0.54992,0.253072 1.19667,0.544645 1.43723,0.64794 0.39378,0.169086 0.48518,0.340435 0.91684,1.718888 l 0.47946,1.531081 -0.32561,0.263664 c -0.20534,0.166276 -0.57038,0.267729 -0.98826,0.274661 -0.36446,0.006 -0.87768,0.02215 -1.14049,0.03575 -0.53279,0.02757 -0.7528,-0.145132 -0.35252,-0.276754 0.14246,-0.04684 0.4504,-0.170972 0.68432,-0.275838 l 0.4253,-0.190675 -0.39889,-0.151655 c -0.56738,-0.215721 -0.60616,-0.204947 -1.20294,0.334207 -0.57184,0.516619 -0.68365,0.557456 -1.45374,0.530911 l -0.49094,-0.01692 0.38581,-0.402703 c 0.2122,-0.221486 0.33671,-0.456759 0.27669,-0.522825 -0.06,-0.06607 -0.0334,-0.07676 0.0591,-0.02377 0.0925,0.053 0.34962,-0.06026 0.57134,-0.251675 l 0.40314,-0.348035 -0.64276,-0.279564 c -0.35352,-0.153761 -1.02035,-0.447998 -1.48184,-0.65386 -0.4615,-0.205857 -0.86788,-0.374291 -0.90308,-0.374291 -0.0352,0 -0.0539,0.337451 -0.0415,0.749887 0.0124,0.41244 0.017,1.048169 0.0104,1.412735 -0.0117,0.639074 -0.0288,0.664683 -0.4764,0.714181 -0.25531,0.02822 -0.60228,0.03166 -0.77103,0.0076 z m 0.52107,-1.939541 c 0,-1.442211 -0.0713,-1.579983 -0.96344,-1.86211 -0.31957,-0.10106 -0.31918,-0.09705 0.11437,1.157809 0.54623,1.580992 0.72656,2.044817 0.79498,2.044817 0.0298,0 0.0541,-0.603233 0.0541,-1.340516 z m 6.07632,0.09861 c -0.19779,-0.788044 -0.4825,-1.289751 -0.77539,-1.366343 -0.27671,-0.07236 -0.30167,-0.02093 -0.30167,0.621509 0,0.653325 0.0312,0.714042 0.46422,0.903409 0.6604,0.288807 0.72117,0.273081 0.61284,-0.158575 z m -1.81912,-1.147987 c -0.0429,-0.666026 -0.055,-0.681319 -0.82913,-1.050959 -1.28813,-0.615047 -1.35475,-0.620298 -1.88287,-0.148424 -0.26055,0.232803 -0.44129,0.455715 -0.40164,0.495366 0.1056,0.105599 2.90695,1.37355 3.04222,1.376972 0.0632,0.0016 0.0954,-0.30123 0.0714,-0.672955 z m -2.97167,-1.97358 c 0,-0.02992 -0.13408,-0.126147 -0.29796,-0.213854 -0.2369,-0.126783 -0.45643,-0.09514 -1.07127,0.1544 -0.42532,0.172625 -0.77298,0.354606 -0.77258,0.404404 4e-4,0.04979 0.24143,0.192156 0.53563,0.316356 0.5263,0.222191 0.54352,0.219126 1.07054,-0.190545 0.2946,-0.229005 0.53564,-0.440847 0.53564,-0.470761 z m -6.68282,2.862095 c -1.02018,-0.248934 -2.28215,-0.882651 -2.47489,-1.2428 -0.18953,-0.354132 0.0889,-1.878884 0.39991,-2.189876 0.48746,-0.48745 2.5027,-0.367607 3.89577,0.23167 0.60528,0.260388 0.66273,0.32613 0.60841,0.69626 l -0.06,0.408723 -0.52137,-0.220725 c -0.86474,-0.366093 -1.91228,-0.606994 -2.59249,-0.596192 l -0.64276,0.0102 0.72811,0.344755 c 0.7689,0.36406 1.91924,0.631287 2.71753,0.631287 0.41493,0 0.50724,0.06874 0.69468,0.517367 0.30066,0.719578 0.27011,1.142683 -0.10128,1.40282 -0.38313,0.268353 -1.56663,0.271256 -2.65163,0.0065 z m 2.29128,-0.907661 c 0.0614,-0.234896 -0.0424,-0.27598 -0.87607,-0.346488 -0.52016,-0.044 -1.41743,-0.250493 -1.99392,-0.458881 -1.07928,-0.390127 -1.26402,-0.389981 -1.11403,8.1e-4 0.1592,0.414874 2.09002,1.045067 3.25251,1.061579 0.53049,0.0075 0.67565,-0.04348 0.73151,-0.257097 z m 12.16645,-1.349755 c -0.0439,-0.114365 -0.0597,-0.488458 -0.0351,-0.831327 0.04,-0.557803 0.0823,-0.623391 0.40181,-0.623391 0.33761,0 0.35709,0.04285 0.35709,0.785594 0,0.70641 -0.0325,0.79021 -0.32202,0.831327 -0.18441,0.0262 -0.35612,-0.04313 -0.40181,-0.162203 z m -5.71214,-1.300322 c -0.27004,-0.19746 -0.26594,-0.218664 0.15869,-0.821306 0.23974,-0.34024 0.86971,-1.245309 1.39995,-2.011267 l 0.96405,-1.392649 h -5.43512 -5.43512 V 27.052813 23.5485 l -1.53549,0.04054 -1.53549,0.04054 -0.0383,3.46377 -0.0383,3.463771 h -5.353779 c -2.944594,0 -5.3538081,0.03437 -5.3538081,0.07639 0,0.04202 0.45343,0.724132 1.007622,1.515816 0.554191,0.79168 0.9880561,1.455634 0.9641421,1.475453 -0.242178,0.200712 -0.7388151,0.361752 -0.8218871,0.266506 -0.05774,-0.0662 -0.666183,-0.908968 -1.352103,-1.872827 l -1.2471266,-1.752474 0.04621,-2.889695 c 0.04387,-2.7434 0.06321,-2.917041 0.38198,-3.429772 0.184676,-0.297043 0.5838416,-0.66663 0.8870336,-0.821306 0.535392,-0.273138 0.896202,-0.281232 12.5340461,-0.281232 h 11.98279 l 0.48194,0.324778 c 0.26507,0.178629 0.62809,0.541653 0.80672,0.806721 0.31197,0.462931 0.32478,0.599184 0.32478,3.453791 v 2.971846 l -1.51758,2.112425 c -0.83467,1.16183 -1.54859,2.193212 -1.58648,2.291957 -0.0906,0.236006 -0.34678,0.227402 -0.68944,-0.02316 z m -19.77443,-8.100984 v -3.161585 l -1.0279151,0.07355 c -0.957258,0.06849 -1.060348,0.108939 -1.499777,0.588437 l -0.4718626,0.514894 v 2.573144 2.573144 h 1.4997776 1.4997771 z m 3.823647,0.0549 -0.0385,-3.106678 -1.464068,-0.04071 -1.464069,-0.0407 v 3.147387 3.147386 h 1.502563 1.502563 z m 3.746653,-0.03571 v -3.14239 h -1.499773 -1.499777 v 3.14239 3.14239 h 1.499777 1.499773 z m 7.59039,0.142837 c -0.0101,-1.610475 -0.0187,-3.010732 -0.0192,-3.111679 -8.1e-4,-0.140165 -0.34686,-0.173924 -1.46493,-0.142837 l -1.46407,0.04071 -0.0387,2.924281 c -0.0213,1.608353 -0.006,3.008618 0.0332,3.111703 0.0543,0.141493 0.42732,0.177447 1.52205,0.146696 l 1.45013,-0.04074 z m 3.83649,-0.142837 v -3.14239 h -1.49977 -1.49978 v 3.14239 3.14239 h 1.49978 1.49977 z m 3.82247,0.71418 c 0.0319,-2.015401 8.1e-4,-2.42921 -0.21426,-2.85672 -0.34391,-0.683445 -1.04494,-1.016329 -2.03701,-0.967277 l -0.7856,0.03883 -0.0387,2.924281 c -0.0213,1.608353 -0.006,3.008618 0.0332,3.111703 0.0543,0.141638 0.43022,0.177475 1.53854,0.146695 l 1.46663,-0.04073 z M 3.1963293,34.654311 c -0.04388,-0.114361 -0.05967,-0.488458 -0.03507,-0.831327 0.04002,-0.557804 0.08229,-0.623392 0.40181,-0.623392 0.337612,0 0.35709,0.04285 0.35709,0.785599 0,0.706406 -0.03246,0.790206 -0.322019,0.831323 -0.184412,0.0262 -0.356117,-0.04313 -0.401811,-0.162203 z M 34.278495,34.206305 c -0.0947,-0.114065 -0.15017,-0.322964 -0.12334,-0.464218 0.0929,-0.489122 1.83167,-0.387029 1.83167,0.107555 0,0.498775 -1.35552,0.781781 -1.70833,0.356663 z m 3.1599,0.08192 c -0.10507,-0.0666 -0.16935,-0.274515 -0.14283,-0.462031 0.0427,-0.302383 0.13166,-0.345771 0.78623,-0.383697 0.64385,-0.03729 0.75016,-0.0045 0.8331,0.256817 0.0526,0.165725 0.0182,0.392249 -0.077,0.506978 -0.18663,0.224888 -1.09044,0.277803 -1.39945,0.08193 z m -1.13018,-1.110174 c -0.26963,-0.111279 -0.23855,-1.567492 0.0357,-1.672731 0.48996,-0.188014 0.65765,0.05503 0.61365,0.889384 -0.0423,0.802543 -0.18522,0.974909 -0.64936,0.783347 z M 1.3608793,32.797349 c -0.141397,-0.103392 -0.233147,-0.312287 -0.203888,-0.464217 0.04486,-0.232954 0.175665,-0.276228 0.834882,-0.276228 0.659218,0 0.79002,0.04327 0.834883,0.276228 0.06546,0.3399 -0.33432,0.652203 -0.834883,0.652203 -0.205649,0 -0.489596,-0.08459 -0.630994,-0.187986 z m 3.094914,0.0407 c -0.365993,-0.147113 -0.41724,-0.452359 -0.117683,-0.700969 0.305745,-0.253744 1.378361,-0.131816 1.567204,0.178151 0.309232,0.507574 -0.637718,0.849122 -1.449521,0.522818 z M 19.612445,31.621713 c -0.34892,-0.348926 -0.36178,-0.421656 -0.31489,-1.781768 0.041,-1.190253 0.0948,-1.462667 0.33456,-1.696134 0.46887,-0.456504 1.49218,-0.450095 1.92272,0.01202 0.25344,0.272041 0.29095,0.499083 0.28905,1.749742 -0.001,0.79042 -0.0494,1.507856 -0.10713,1.594295 -0.38914,0.582794 -1.59423,0.651905 -2.12431,0.121828 z m 1.28449,-0.531863 c 0.20666,-0.151113 0.24108,-0.372028 0.20585,-1.32123 -0.0423,-1.139456 -0.0424,-1.139792 -0.45532,-1.186925 -0.54751,-0.0625 -0.65346,0.145298 -0.65607,1.286758 -0.002,0.679056 0.0625,1.018617 0.22226,1.178394 0.27172,0.271717 0.36267,0.277442 0.68328,0.043 z m -17.5838287,0.6582 c -0.271775,-0.109664 -0.238979,-1.605207 0.03753,-1.711313 0.11884,-0.0456 0.311668,-0.0036 0.428507,0.09339 0.257317,0.213555 0.286137,1.296014 0.04103,1.541122 -0.182683,0.182682 -0.227755,0.189508 -0.507067,0.0768 z"
       id="path1" /></g></svg>
