<?xml version="1.0" encoding="UTF-8"?>
<!-- Created with Inkscape (http://www.inkscape.org/) -->
<svg width="150" height="205" version="1.0" viewBox="0 0 150 205" xmlns="http://www.w3.org/2000/svg" xmlns:cc="http://creativecommons.org/ns#" xmlns:dc="http://purl.org/dc/elements/1.1/" xmlns:rdf="http://www.w3.org/1999/02/22-rdf-syntax-ns#">
 <path d="m72.081 0.01698c-3.5743 0.18464-7.2167 1.8773-6.5265 5.1526l-2.7478 21.226 1.0991 4.7393-44.307 6.5946c1.0507 4.4382 3.0159 8.6939 2.4048 13.464l3.9832 3.2973 6.5946-0.13629 0.41327 14.15-10.305 3.5039c-0.10771 7.0519 0.92984 10.806 0.82433 17.86 0.82653 2.3675 2.0268 2.8445 4.1898 3.3655l1.0991-0.27478 1.031 12.022 4.1898 1.9916 17.724-0.54955 12.983-3.915-0.13849 21.707c-3.2533 13.372-3.7479 26.746-0.41106 40.117v9.8238c-2.8797 0.42426-5.6252 2.5587-8.1048 4.0513-2.2708 3.5457-3.0203 7.3816-5.634 10.789-4.3041 4.5063-9.9161 11.365-3.7084 14.354 5.834-0.0879 13.139-3.4952 17.858-6.5946 2.8555 1.6487 5.7813 2.8797 9.0698 2.1323 4.6558 3.8029 10.362 5.4296 16.348 6.111 5.2911-0.10991 9.0412-4.3744 14.15-4.946 4.0711 0.96721 3.6336-1.3629 4.2601-5.3636-3.6776-7.9795-8.2059-10.96-15.801-13.457 0.74519-7.9531-6.6342-10.09-13.6-10.512l-1.031-63.335c0.23301-2.7851 1.1299-6.5529 1.2376-9.2742l38.401-11.609 10.991 2.9544 1.6487-10.03-2.7478-6.6628-2.8181-1.9916 4.3964-1.6487 1.3057-18.617-3.161-2.4048 2.4752-0.68804-3.6424-19.302h-0.48137l-15.66-0.34292-2.1301-0.89247-2.9544-0.13849-1.7872-0.89248-6.5243 0.48141-17.243 2.5411-0.96282-25.073c0.83092-2.6378-2.6752-3.9634-6.2495-3.7787zm0.68584 1.3057c2.9412 0.0835 5.3966 1.5717 3.3655 4.8756l1.4442 23.152-11.266 1.442-1.442-2.6796 2.8841-21.019c-3.3303-3.6622 1.2332-5.878 5.0141-5.7703zm2.9544 5.7022c-2.3301 0.91665-4.7481 2.6928-6.7331 0.13629l-0.41107 0.82432c2.695 4.691 4.2403 1.9036 6.5946 0.41107zm26.928 19.92 0.54955 0.48141c-1.0068 0.18025-19.59 3.4798-38.675 6.9375l-41.421 5.7022c1.741 3.9832 2.5785 8.3268 2.8159 12.914l-2.6796-2.1301c0.8551-5.6626-1.3541-8.2631-2.1301-12.297l75.427-11.195zm1.0991 0.13629 3.9854 0.54955 1.9212 0.68804 10.923 0.13849-10.51 0.68584-5.8384-1.9234s-0.40887 0.0681-0.41326 0.0681zm0.34292 1.5124 4.7415 1.9234-9.138 3.1588 5.4955 1.4442-23.217 6.5946-2.6796-0.06815-0.27478 0.96062-9.8919 2.8159c-0.28797-1.1694-0.7364-2.2532-1.5102-2.8159l-4.8778 4.603-0.82433 0.27478-4.7393-4.8097-1.4442 6.5265-5.4955 1.5805-4.8075-4.8097-0.27478-0.13629 3.7084 5.357-7.2805 2.0619v0.06814l-14.288-0.13628c-0.26598-4.1502-0.75838-8.1861-2.473-11.611 13.312-1.7212 27.462-3.5105 40.667-5.9066 19.397-3.5149 38.205-7.0013 38.605-7.076zm21.433 0.89247 1.6487 16.35-10.303 3.915v0.27478l-38.607 9.4105c-0.16487-0.18025-0.31874-0.3715-0.48141-0.54955-0.84631 0.22642-1.4904 0.64627-1.9916 1.1672l-11.884 2.9544-0.6177-1.6487c-0.9782 0.68144-1.9608 1.6157-2.9544 2.473l-3.0907 0.75618c-0.36271-0.17366-0.75619-0.34292-0.75619-0.34292l-0.27477 0.13629c0.033 0.20443 0.0945 0.30995 0.13628 0.48141l-7.4168 1.7849 0.27257 0.68804 7.2827-1.8553c0.987 2.3653 3.4974 0.16047 5.7022-1.3739l0.61769-0.20663 0.68584 2.1301 3.8469-1.9234 7.5574 3.3677c0.56714-2.0927 1.4904-4.7218 2.4048-6.665l2.6774 3.3677 2.8862-3.9172-0.41106-0.68584-2.3367 1.7168c-0.47921-0.42645-0.93204-0.90346-1.3739-1.3739l38.126-9.549v0.34292l12.708 0.54955-2.5411 16.625-13.053 6.3199-68.969 14.014-0.0681-0.13848-15.456 3.3676-0.27478-17.656 19.92-5.8384-0.20443-1.3057-0.0703-0.20443-11.059 1.1672-0.48141-12.708 5.5659-1.5805h-0.41327l6.5946-1.9234 2.5411 3.7084 4.6712-4.2579 0.20663-1.5102 4.0535-1.1694 2.7478 2.8181c0.77597-1.5827 1.5915-2.9984 2.473-4.3283l1.9916-0.54955 1.1672 2.2664 10.373 1.3739 1.7168-7.2827 9.4105 1.719-1.0288 3.6402c2.5895 1.3145 5.1152 0.07254 7.6234-0.89247l-0.27258-0.27478c-1.2288 0.54076-4.1612-0.29896-5.4274 0.13629l1.9234-4.6712-10.373-0.34292 23.492-6.7309-5.7-1.3057 9.3424-3.161zm-19.302 8.3818-3.4336 2.7478-5.7022-1.9234-0.54955 0.27478 7.0738 4.8778 2.8862-5.8406zm3.8469 0.41107-0.54955 0.82433c-0.42205 2.2488 1.475 3.8447 2.884 5.3592l0.54955-0.68804zm-31.118 4.603-1.2376 4.3964-8.0367 1.031c-0.16926-0.77817-0.27697-1.7146-0.48141-2.6115zm-21.846 1.7168 3.2292 3.2973-3.7787 1.0991zm9.9623 0.20663 0.54955 1.031-1.5805 0.41106c0.33633-0.4902 0.65946-0.96941 1.031-1.442zm-4.7415 2.8159-0.13629 0.13849-0.0681-0.06814zm63.612 0.89247 2.473 1.9256-8.5862-0.41326zm-70.343 1.031-0.13849 0.75618-3.6402 2.0597-1.3057-1.3035zm-19.852 4.7415-0.0703 14.15-1.442-0.20663-0.54955-13.875zm67.045 1.3717-2.3367 1.9938-4.5349-0.6177-3.2973 3.227 0.27697 0.13849 3.4336-1.9234 4.7393 1.5102 2.1982-2.6796 3.2973 0.48141v-0.96062zm-27.616 5.1526c-0.71662 1.1211-1.0749 2.5477-1.5805 3.9172l-6.2517-1.9256zm-9.8238 2.473-1.0288 0.89467-0.20663-0.54955zm-6.3199 1.5805c-0.18025 0.13629-0.3693 0.29016-0.54955 0.41326-2e-3 -0.02198-0.2462-0.14948-0.34292-0.20663zm41.562 2.3345-4.6031 3.9854-6.8012-2.2664-2.6115 3.3655-3.5017-2.4048-3.4358 5.5637-5.5637-0.96062v0.41106l6.2517 3.5039 3.4336-6.6628 3.2973 3.5721 2.9544-3.7787 6.4561 2.1301 5.0845-6.0451zm-53.034 0.41326-20.263 5.0823 0.34292 18.755c-1.1079-0.21102-2.1696-1.4222-3.0225-1.8553 0-1.5519-0.16707-16.188-0.13849-17.586l11.198-3.4336v0.68584zm76.115 3.5039 1.785 1.7849-8.3114 0.68804zm-9.549 3.4336 0.13629 0.41326h11.611l3.7765 5.2207-1.8553 8.0366-11.059-2.5411-65.329 19.234h-15.456l-2.1301-10.167 11.611-5.7703-0.13849-0.20663 40.531-8.3818-2.1301 8.107-14.77-0.54955-1.7849 1.8553-2.0619-1.3057-6.5265 5.4274-4.669-0.13849-0.27698 0.41327 5.2911 2.3345 5.357-6.388 2.5411 2.0619 2.3367-3.0247 15.937 0.54955 1.7872-7.6937 7.0738 2.9544 12.433-6.1814-0.13629-0.54955-12.433 4.3964-7.419-2.4048zm-54.544 0.41326-8.1048 4.6031-5.1526-2.2686v0.54955l5.2889 4.1898 7.076-5.4955 2.6796 5.2911 3.2973-4.5349 2.884 2.5411 2.473-3.3655-0.54955-0.41106-2.6093 1.9916-2.6796-2.1301-2.3367 2.4048zm-16.623 14.425-10.58 4.3964-2.6774-0.89247zm-12.158 4.3964 1.6487 1.3739 1.3035 10.099-2.7478-0.68804zm46.231 5.0163c-0.08353 2.5565-0.18245 5.124-0.48141 7.83l0.27478 74.464c-4.9636 2.5719-6.8254 8.1224-4.3964 16.08-2.3829 1.0332-4.0909-0.43964-6.3199-3.0995l0.27478-28.917c-3.5369-13.649-3.3852-27.018-0.34292-40.667l0.89247-22.67zm1.9916 72.745c2.3807-0.10991 4.7811 0.63308 6.8694 1.9234l-3.0225 3.6402 0.82433 0.54955 3.915-2.884c1.941 1.6618 3.4292 3.7919 3.915 6.1132-1.464-0.45503-3.0137-0.90347-4.5327-1.3035-3.0335-0.29896-5.7241-0.0506-7.9685 0.6177zm-14.838 4.192-0.27478 18.755c-1.5805 1.231-4.4382 2.9236-7.4871 4.3964 0.56494-3.4512 0.78696-7.4299 3.4336-10.991l-0.27478-0.1319c-3.5985 3.737-5.5878 7.8036-5.4955 12.222-2.6378 1.0991-5.2603 1.9124-7.2123 1.9124-4.2799-2.1762 1.0332-8.2433 3.5721-11.123 3.5743-2.5499 4.1788-7.2145 5.7703-11.057 1.985-1.2684 5.6802-2.9412 7.9685-3.9832zm22.67 6.0451c1.2002 0.20883 2.4114 0.44843 3.6402 0.75398l1.8553 8.6588-4.946 4.1766 0.47921 4.88 0.27477-0.13189 0.20664-4.1106 4.2579-3.9348 4.3283 4.1986 3.4358 0.4836-0.13848-0.41766-2.6796-1.231-3.9832-3.8469-0.13629-7.83c5.911 1.9388 11.391 5.2361 13.6 11.061-0.41107 2.5719-7e-3 3.4732-2.3367 3.3633-5.2933 0.0879-9.3974 3.7809-14.288 5.3636-9.6941-1.0771-13.741-4.1766-16.348-5.5615-3.8293-10.529 3.3545-15.853 12.778-15.875z" fill="#ce5600" fill-rule="evenodd" stroke-width="2.1982"/>
</svg>
