<?xml version="1.0" encoding="UTF-8" standalone="no"?>
<svg
   width="150"
   height="205"
   preserveAspectRatio="xMidYMid"
   version="1.0"
   viewBox="0 0 112.5 153.75"
   id="svg8"
   sodipodi:docname="stone.svg"
   inkscape:version="1.2.2 (b0a84865, 2022-12-01)"
   xmlns:inkscape="http://www.inkscape.org/namespaces/inkscape"
   xmlns:sodipodi="http://sodipodi.sourceforge.net/DTD/sodipodi-0.dtd"
   xmlns="http://www.w3.org/2000/svg"
   xmlns:svg="http://www.w3.org/2000/svg">
  <defs
     id="defs12" />
  <sodipodi:namedview
     id="namedview10"
     pagecolor="#ffffff"
     bordercolor="#000000"
     borderopacity="0.25"
     inkscape:showpageshadow="2"
     inkscape:pageopacity="0.0"
     inkscape:pagecheckerboard="0"
     inkscape:deskcolor="#d1d1d1"
     showgrid="false"
     inkscape:zoom="0.14382951"
     inkscape:cx="-1331.4375"
     inkscape:cy="-323.29944"
     inkscape:window-width="1800"
     inkscape:window-height="1097"
     inkscape:window-x="0"
     inkscape:window-y="44"
     inkscape:window-maximized="1"
     inkscape:current-layer="svg8" />
  <metadata
     id="metadata2">Created by potrace 1.15, written by Peter Selinger 2001-2017</metadata>
  <g
     transform="matrix(.1 0 0 -.1 0 1034)"
     id="g6"
     style="stroke-width:48.9975;stroke-dasharray:none">
    <path
       d="m526.03 9876.1c-5.918-4.822-31.344-29.481-56.331-54.577-24.987-25.097-54.468-54.03-65.537-64.331-11.069-10.192-22.795-21.919-25.974-26.193-12.822-16.768-26.083-43.289-35.618-71.455-2.5206-7.2331-5.4796-12.384-15.014-25.754-42.96-60.276-54.577-77.921-67.729-103.35-4.055-7.7811-10.083-18.192-13.48-22.905-14.905-21.371-18.083-33.535-29.261-111.89-6.466-45.152-7.3428-49.207-19.179-88.222-13.151-42.96-17.206-62.03-20.384-95.346-2.0822-21.7-1.5343-59.18 1.2054-86.031 3.0687-29.371 0.8768-56.55-6.1371-77.811-6.2468-18.631-19.508-40.44-33.864-55.783-4.3838-4.6029-6.5757-7.781-5.6988-8.0003 6.9043-2.4111 20.932-15.343 47.344-43.728 13.151-14.138 33.974-27.179 54.249-34.193 29.481-10.192 83.839-21.151 111.78-22.576 6.0276-0.3288 16.658-0.8768 23.562-1.2056 25.097-1.315 28.604-2.3014 67.4-19.179 36.385-15.781 58.084-19.617 103.89-18.192 78.688 2.4109 81.099 2.6302 121.32 11.617 32.878 7.3428 50.522 9.7538 71.783 9.8634 14.685 0 34.851 2.1918 45.591 4.9317 21.59 5.4796 32.001 11.398 80.332 45.262 19.288 13.59 65.098 43.837 105.32 69.592l26.302 16.877 0.32873 17.973c0.65754 28.823-4.1646 67.4-11.836 95.236-5.6988 20.713-8.9866 34.193-10.959 43.947-3.2878 16.439-3.8357 20.384-8.7674 58.523-3.0687 24.11-4.055 30.576-6.5756 43.289-1.3152 6.3564-2.7399 15.453-3.3974 20.275-1.8631 15.891-4.2741 55.564-4.2741 72.331 0 9.0962-0.32881 20.384-0.65762 25.316l-0.76709 8.8771-10.74 12.274c-15.672 17.973-16.877 19.836-34.741 57.098-9.7538 20.056-20.494 36.933-41.536 64.77l-13.918 18.521h-7.781c-10.083-0.1095-15.453-2.5206-24.001-11.288-8.3292-8.4386-19.069-14.247-32.768-17.644-17.864-4.4933-16.549-4.603-18.083 1.3151-5.1509 19.508-26.85 66.961-42.96 93.921-11.069 18.412-16.768 30.138-21.699 44.604-5.4796 15.781-7.7811 26.193-13.918 62.797-9.5346 56.879-14.905 72.222-31.563 89.976-7.8907 8.4392-11.288 10.959-30.576 22.028-18.193 10.412-19.946 11.617-32.659 24.001-11.946 11.507-24.001 20.055-39.563 27.836-5.918 3.069-10.959 5.48-11.178 5.48s-5.2605-3.945-11.288-8.877z"
       fill="none"
       stroke="#949494"
       stroke-width="85.34"
       id="path4"
       style="stroke-width:48.9975;stroke-dasharray:none" />
  </g>
</svg>
