<svg id="svgenso" viewBox="0 0 2048 2048" xmlns="http://www.w3.org/2000/svg"><rect width="100%" height="100%" fill="#e8e3df"></rect><path fill="none" stroke="#000000" stroke-width="5" d="M 1532.183629640357 961.6028961765645 A 512 512 0 1 0 611.3647194887599 1327.1107475452004" stroke-linecap="round" shape-rendering="geometricPrecision"></path><path fill="none" stroke="#000000" stroke-width="5" d="M 792.9188356325707 1477.5223208118791 A 509 509 0 1 0 601.523746886458 1307.8922604706622" stroke-linecap="round" shape-rendering="geometricPrecision"></path><path fill="none" stroke="#000000" stroke-width="5" d="M 1512.7584681022686 893.0375631781245 A 506 506 0 1 0 616.200289182251 1323.558668472405" stroke-linecap="round" shape-rendering="geometricPrecision"></path><path fill="none" stroke="#000000" stroke-width="5" d="M 1493.5909545280924 1204.259078621286 A 503 503 0 1 0 616.5490548557646 1318.945295438102" stroke-linecap="round" shape-rendering="geometricPrecision"></path><path fill="none" stroke="#000000" stroke-width="5" d="M 534.9261996330972 920.0441545911203 A 500 500 0 0 0 625.2080355873857 1325.603993872641" stroke-linecap="round" shape-rendering="geometricPrecision"></path><path fill="none" stroke="#000000" stroke-width="5" d="M 1445.4799037897437 1287.3698743239029 A 497 497 0 1 0 625.5175048108542 1321.019698046834" stroke-linecap="round" shape-rendering="geometricPrecision"></path><path fill="none" stroke="#000000" stroke-width="5" d="M 1285.7801165312032 1442.9357595012746 A 494 494 0 1 0 621.8269339319784 1310.8672601212043" stroke-linecap="round" shape-rendering="geometricPrecision"></path><path fill="none" stroke="#000000" stroke-width="5" d="M 1339.6087163560908 1400.1278215714183 A 491 491 0 1 0 628.2892134159788 1314.6784707904167" stroke-linecap="round" shape-rendering="geometricPrecision"></path><path fill="none" stroke="#000000" stroke-width="5" d="M 1423.746197613028 1303.9053009393106 A 488 488 0 1 0 632.7334856090481 1315.6410717240542" stroke-linecap="round" shape-rendering="geometricPrecision"></path><path fill="none" stroke="#000000" stroke-width="5" d="M 834.4954026827023 1470.4448539244336 A 485 485 0 1 0 627.1973870488634 1302.8775472409898" stroke-linecap="round" shape-rendering="geometricPrecision"></path><path fill="none" stroke="#000000" stroke-width="5" d="M 1364.825468531916 1364.825468531916 A 482 482 0 1 0 637.5441394745105 1312.0553208422011" stroke-linecap="round" shape-rendering="geometricPrecision"></path><path fill="none" stroke="#000000" stroke-width="5" d="M 1305.5491358480947 1411.5191403055999 A 479 479 0 1 0 635.9900542264636 1304.872358876443" stroke-linecap="round" shape-rendering="geometricPrecision"></path><path fill="none" stroke="#000000" stroke-width="5" d="M 1217.606642104081 1458.847637837878 A 476 476 0 1 0 634.5607345056887 1297.7024999726004" stroke-linecap="round" shape-rendering="geometricPrecision"></path><path fill="none" stroke="#000000" stroke-width="5" d="M 1489.8140671747744 941.8644119635419 A 473 473 0 1 0 642.795922496452 1304.022233572031" stroke-linecap="round" shape-rendering="geometricPrecision"></path><path fill="none" stroke="#000000" stroke-width="5" d="M 1468.393730531679 870.9829674051364 A 470 470 0 1 0 647.1654472054356 1304.883819078495" stroke-linecap="round" shape-rendering="geometricPrecision"></path><path fill="none" stroke="#000000" stroke-width="5" d="M 1386.9271640004054 1317.892622620274 A 467 467 0 1 0 645.7105539118132 1297.8358905956136" stroke-linecap="round" shape-rendering="geometricPrecision"></path><path fill="none" stroke="#000000" stroke-width="5" d="M 1429.8235441126797 1248.9516637943004 A 464 464 0 1 0 650.0492770366886 1298.6941149628378" stroke-linecap="round" shape-rendering="geometricPrecision"></path><path fill="none" stroke="#000000" stroke-width="5" d="M 1448.352737441575 1204.127050233555 A 461 461 0 1 0 652.4670618834342 1296.9180754264403" stroke-linecap="round" shape-rendering="geometricPrecision"></path><path fill="none" stroke="#000000" stroke-width="5" d="M 1119.223554394534 1471.9916011360829 A 458 458 0 1 0 645.6469811209403 1282.0949304134078" stroke-linecap="round" shape-rendering="geometricPrecision"></path><path fill="none" stroke="#000000" stroke-width="5" d="M 1442.8297083208604 1201.7826634626194 A 455 455 0 1 0 659.1920818690919 1295.919441873862" stroke-linecap="round" shape-rendering="geometricPrecision"></path><path fill="none" stroke="#000000" stroke-width="5" d="M 1016.1115122903478 1475.9311582106889 A 452 452 0 1 0 650.6035708879149 1278.7137741197826" stroke-linecap="round" shape-rendering="geometricPrecision"></path><path fill="none" stroke="#000000" stroke-width="5" d="M 590.2993039962084 907.7902487489681 A 449 449 0 0 0 665.8848159574723 1294.8403864976317" stroke-linecap="round" shape-rendering="geometricPrecision"></path><path fill="none" stroke="#000000" stroke-width="5" d="M 931.2713858952794 1460.2538299272774 A 446 446 0 1 0 655.5601606548894 1275.332617826157" stroke-linecap="round" shape-rendering="geometricPrecision"></path><path fill="none" stroke="#000000" stroke-width="5" d="M 1464.573199648145 1070.3061092275705 A 443 443 0 1 0 668.813389600017 1288.747940110156" stroke-linecap="round" shape-rendering="geometricPrecision"></path><path fill="none" stroke="#000000" stroke-width="5" d="M 1425.9600013627444 1202.964122953352 A 440 440 0 1 0 671.2187165327482 1286.9550646692292" stroke-linecap="round" shape-rendering="geometricPrecision"></path><path fill="none" stroke="#000000" stroke-width="5" d="M 1460.4011066877488 1001.1291871218335 A 437 437 0 1 0 671.8093406573986 1282.709759135259" stroke-linecap="round" shape-rendering="geometricPrecision"></path><path fill="none" stroke="#000000" stroke-width="5" d="M 1158.1133755587273 1436.7585280720966 A 434 434 0 1 0 672.4419280465245 1278.4856028233326" stroke-linecap="round" shape-rendering="geometricPrecision"></path><path fill="none" stroke="#000000" stroke-width="5" d="M 1031.5219871744691 1454.9343566124046 A 431 431 0 1 0 671.3774717898148 1271.8272636306529" stroke-linecap="round" shape-rendering="geometricPrecision"></path><path fill="none" stroke="#000000" stroke-width="5" d="M 986.6973421040022 1450.371330783267 A 428 428 0 1 0 670.4299299558131 1265.1891489452807" stroke-linecap="round" shape-rendering="geometricPrecision"></path><path fill="none" stroke="#000000" stroke-width="5" d="M 1395.7133755342431 817.9559113953068 A 425 425 0 1 0 683.2453511964045 1277.9906874645965" stroke-linecap="round" shape-rendering="geometricPrecision"></path><path fill="none" stroke="#000000" stroke-width="5" d="M 979.8889885010503 1443.6882398454113 A 422 422 0 1 0 675.3865197227877 1261.8079926516552" stroke-linecap="round" shape-rendering="geometricPrecision"></path><path fill="none" stroke="#000000" stroke-width="5" d="M 1174.1561708594809 1415.1701987023275 A 419 419 0 1 0 682.8855978087022 1267.3145384428838" stroke-linecap="round" shape-rendering="geometricPrecision"></path><path fill="none" stroke="#000000" stroke-width="5" d="M 923.3604914305382 1427.6430221308146 A 416 416 0 1 0 677.1034980200582 1253.6057858898164" stroke-linecap="round" shape-rendering="geometricPrecision"></path><path fill="none" stroke="#000000" stroke-width="5" d="M 1191.9822335903054 1401.294274006394 A 413 413 0 1 0 684.4545110543054 1259.1124431769385" stroke-linecap="round" shape-rendering="geometricPrecision"></path><path fill="none" stroke="#000000" stroke-width="5" d="M 857.237976338922 1398.5536376334665 A 410 410 0 1 0 683.6949631108994 1252.675494681673" stroke-linecap="round" shape-rendering="geometricPrecision"></path><path fill="none" stroke="#000000" stroke-width="5" d="M 1009.7959048420822 1430.752066596772 A 407 407 0 1 0 687.7779941402241 1253.3551019175916" stroke-linecap="round" shape-rendering="geometricPrecision"></path><path fill="none" stroke="#000000" stroke-width="5" d="M 1412.349725159081 1135.3574917500678 A 404 404 0 1 0 700.0826397255234 1265.4405593781105" stroke-linecap="round" shape-rendering="geometricPrecision"></path><path fill="none" stroke="#000000" stroke-width="5" d="M 982.084086229671 1422.8032800426777 A 401 401 0 1 0 694.3202395466742 1252.2810888957686" stroke-linecap="round" shape-rendering="geometricPrecision"></path><path fill="none" stroke="#000000" stroke-width="5" d="M 637.8223009421533 927.7150855513322 A 398 398 0 0 0 706.561596327559 1264.0767791226222" stroke-linecap="round" shape-rendering="geometricPrecision"></path><path fill="none" stroke="#000000" stroke-width="5" d="M 1408.8761755901678 1112.8556664658267 A 395 395 0 1 0 707.2986205237171 1260.0619330553309" stroke-linecap="round" shape-rendering="geometricPrecision"></path><path fill="none" stroke="#000000" stroke-width="5" d="M 1201.9642758979023 1373.2745574818402 A 392 392 0 1 0 708.0761133585818 1256.069166089294" stroke-linecap="round" shape-rendering="geometricPrecision"></path><path fill="none" stroke="#000000" stroke-width="5" d="M 1382.0763879929993 872.0055910176725 A 389 389 0 1 0 712.1092743891797 1256.4761821734778" stroke-linecap="round" shape-rendering="geometricPrecision"></path><path fill="none" stroke="#000000" stroke-width="5" d="M 879.4018549414579 1381.8929678627799 A 386 386 0 1 0 706.6524001621353 1243.7418960443058" stroke-linecap="round" shape-rendering="geometricPrecision"></path><path fill="none" stroke="#000000" stroke-width="5" d="M 1362.168928064969 1203.807608546996 A 383 383 0 1 0 716.9199282546422 1252.8904312916245" stroke-linecap="round" shape-rendering="geometricPrecision"></path><path fill="none" stroke="#000000" stroke-width="5" d="M 1306.3950336814098 1278.2696304163662 A 380 380 0 1 0 716.1841766305974 1246.8214955596" stroke-linecap="round" shape-rendering="geometricPrecision"></path><path fill="none" stroke="#000000" stroke-width="5" d="M 847.0092208297193 1356.8712425078156 A 377 377 0 1 0 714.0516965314121 1238.6183803334281" stroke-linecap="round" shape-rendering="geometricPrecision"></path><path fill="none" stroke="#000000" stroke-width="5" d="M 1386.8906016272226 1114.4787889542758 A 374 374 0 1 0 724.135909052836 1247.511804968845" stroke-linecap="round" shape-rendering="geometricPrecision"></path><path fill="none" stroke="#000000" stroke-width="5" d="M 1394.943494903021 1017.5251572117678 A 371 371 0 1 0 726.5412359855673 1245.7189295279184" stroke-linecap="round" shape-rendering="geometricPrecision"></path><path fill="none" stroke="#000000" stroke-width="5" d="M 1389.2569838040065 1068.8479183730942 A 368 368 0 1 0 727.4183921325462 1241.8608497981127" stroke-linecap="round" shape-rendering="geometricPrecision"></path><path fill="none" stroke="#000000" stroke-width="5" d="M 1349.2173813287543 1189.7065324049345 A 365 365 0 1 0 729.8361769792917 1240.0848102617151" stroke-linecap="round" shape-rendering="geometricPrecision"></path><path fill="none" stroke="#000000" stroke-width="5" d="M 1251.8139815600412 1305.3268380474235 A 362 362 0 1 0 730.7649261586218 1236.2667931383558" stroke-linecap="round" shape-rendering="geometricPrecision"></path><path fill="none" stroke="#000000" stroke-width="5" d="M 872.280044035089 1349.3644955461573 A 359 359 0 1 0 724.6349898778867 1222.145377727029" stroke-linecap="round" shape-rendering="geometricPrecision"></path><path fill="none" stroke="#000000" stroke-width="5" d="M 1374.591560072346 962.1812487505728 A 356 356 0 1 0 738.5678706492236 1236.7545523232855" stroke-linecap="round" shape-rendering="geometricPrecision"></path><path fill="none" stroke="#000000" stroke-width="5" d="M 847.5000000000001 1329.7069675359069 A 353 353 0 1 0 732.3873020429954 1222.924695274963" stroke-linecap="round" shape-rendering="geometricPrecision"></path><path fill="none" stroke="#000000" stroke-width="5" d="M 828.2824837852387 1314.1631503942647 A 350 350 0 1 0 732.1399622764911 1217.1779448592206" stroke-linecap="round" shape-rendering="geometricPrecision"></path><path fill="none" stroke="#000000" stroke-width="5" d="M 1265.046454549272 1273.6109107175118 A 347 347 0 1 0 745.7838514474174 1231.3759260005058" stroke-linecap="round" shape-rendering="geometricPrecision"></path><path fill="none" stroke="#000000" stroke-width="5" d="M 1047.996226967979 1367.1620332893795 A 344 344 0 1 0 738.4757739271936 1215.8643174890135" stroke-linecap="round" shape-rendering="geometricPrecision"></path><path fill="none" stroke="#000000" stroke-width="5" d="M 1123.6987513104532 1350.099921783395 A 341 341 0 1 0 747.7758006079835 1223.9529736469042" stroke-linecap="round" shape-rendering="geometricPrecision"></path><path fill="none" stroke="#000000" stroke-width="5" d="M 1343.585278552569 1134.042036206519 A 338 338 0 1 0 748.8289547955641 1220.2775990302976" stroke-linecap="round" shape-rendering="geometricPrecision"></path><path fill="none" stroke="#000000" stroke-width="5" d="M 1186.411222782523 1316.9976018916975 A 335 335 0 1 0 751.271301350633 1218.535490163165" stroke-linecap="round" shape-rendering="geometricPrecision"></path><text x="2028" y="2028" color="black" text-anchor="end" font-size="40" id="svgsource" font-family="Arnold, sans-serif">— Utsob Roy (ডেথনোট)</text></svg>