<?xml version="1.0" encoding="UTF-8"?>
<!-- Created with Inkscape (http://www.inkscape.org/) -->
<svg width="400" height="362.25" version="1.1" viewBox="0 0 105.83 95.845" xml:space="preserve" xmlns="http://www.w3.org/2000/svg"><g transform="matrix(.713 0 0 .713 77.075 71.416)" fill="none" stroke="#20b2aa"><g transform="matrix(1.7758 0 0 1.7758 -218.04 -53.747)"><g transform="matrix(1.0075 0 0 1.0075 -117.66 -102.15)" fill="none" stroke="#008000"><g transform="translate(6.3294 21.625)"><g transform="translate(2.2098 31.932)"><g transform="translate(143.47 -53.536)" stroke="#20e0cd"><path transform="translate(-2.2098 -31.932)" d="m81.211 180.38 19.707 0.26372" stroke-width="3.683"/><g transform="translate(-.36252)"><path d="m89.544 146.87v-6.794" stroke-width="2.6458"/><path d="m88.77 141.34 6.6272-8.1886" stroke-width="2.3347"/><path d="m89.919 141.46-5.5766-5.8386" stroke-width="2.3102"/></g><circle cx="100.95" cy="126.47" r="6.9136" stroke-width="2.6458"/><circle cx="79.351" cy="130.4" r="5.0854" stroke-width="2.6458"/></g></g></g></g><g transform="matrix(1.4025 0 0 1.4025 78.297 -26.312)" fill="none" stroke="#2e8b57"><circle cx="34.846" cy="31.29" r="3.9152" stroke-width="1.8521"/><circle cx="4.8413" cy="31.29" r="3.9152" stroke-width="1.8521"/><path d="m9.2604 52.775h21.167" stroke-width="2.6458"/><path d="m19.844 53.834v-37.849" stroke-width="2.5838"/><g stroke-width="2.6458"><circle cx="19.844" cy="7.1851" r="5.739"/><path d="m6.6146 37.959 5.2917 5.2917h7.9375"/><path d="m33.073 37.959-5.2917 5.2917h-7.9375"/></g><circle cx="31.804" cy="17.056" r="3.9152" stroke-width="1.3229"/><circle cx="7.884" cy="17.056" r="3.9152" stroke-width="1.3229"/><path d="m9.2604 23.406 10.583 2.6458 10.583-2.6458" stroke-width="2.6458"/></g><g transform="translate(61.911 -10.894)"><path d="m8.1887 58.6h23.31" stroke-width="3.7108"/><g transform="translate(0 3.7438)"><circle cx="33.971" cy="33.263" r="4.79" stroke="#20b2aa" stroke-width="1.8527"/><circle cx="5.716" cy="33.263" r="4.79" stroke-width="1.8521"/><g stroke-width="2.6458"><path d="m19.844 53.743v-25.896"/><circle cx="19.844" cy="18.683" r="7.0212"/><path d="m6.8958 40.795 12.948 3.237 12.948-3.237"/></g></g></g></g></g></svg>
